<?xml version="1.0" encoding="UTF-8" standalone="no"?>
<!-- Created with Inkscape (http://www.inkscape.org/) -->

<svg
   xmlns:dc="http://purl.org/dc/elements/1.1/"
   xmlns:cc="http://creativecommons.org/ns#"
   xmlns:rdf="http://www.w3.org/1999/02/22-rdf-syntax-ns#"
   xmlns:svg="http://www.w3.org/2000/svg"
   xmlns="http://www.w3.org/2000/svg"
   xmlns:sodipodi="http://sodipodi.sourceforge.net/DTD/sodipodi-0.dtd"
   xmlns:inkscape="http://www.inkscape.org/namespaces/inkscape"
   width="265.13226"
   height="54.869373"
   id="svg3104"
   version="1.1"
   inkscape:version="0.48.3.1 r9886"
   sodipodi:docname="Neues Dokument 5">
  <defs
     id="defs3106">
    <clipPath
       clipPathUnits="userSpaceOnUse"
       id="clipPath3018">
      <path
         inkscape:connector-curvature="0"
         d="m 179.945,367.48 252.11,0 0,78.906 -252.11,0 0,-78.906 z"
         id="path3020" />
    </clipPath>
  </defs>
  <sodipodi:namedview
     id="base"
     pagecolor="#ffffff"
     bordercolor="#666666"
     borderopacity="1.0"
     inkscape:pageopacity="0.0"
     inkscape:pageshadow="2"
     inkscape:zoom="0.35"
     inkscape:cx="239.70898"
     inkscape:cy="-81.136743"
     inkscape:document-units="px"
     inkscape:current-layer="layer1"
     showgrid="false"
     fit-margin-top="0"
     fit-margin-left="0"
     fit-margin-right="0"
     fit-margin-bottom="0"
     inkscape:window-width="1229"
     inkscape:window-height="1000"
     inkscape:window-x="51"
     inkscape:window-y="24"
     inkscape:window-maximized="1" />
  <metadata
     id="metadata3109">
    <rdf:RDF>
      <cc:Work
         rdf:about="">
        <dc:format>image/svg+xml</dc:format>
        <dc:type
           rdf:resource="http://purl.org/dc/dcmitype/StillImage" />
        <dc:title></dc:title>
      </cc:Work>
    </rdf:RDF>
  </metadata>
  <g
     inkscape:label="Ebene 1"
     inkscape:groupmode="layer"
     id="layer1"
     transform="translate(-110.29102,-396.35606)">
    <g
       transform="matrix(1.25,0,0,-1.25,-139.64398,929.34069)"
       id="g3014">
      <g
         id="g3016"
         clip-path="url(#clipPath3018)">
        <g
           id="g3022"
           transform="translate(249.0715,398.4818)">
          <path
             inkscape:connector-curvature="0"
             d="m 0,0 c 1.035,1.36 1.285,3.053 1.285,4.725 0,3.747 -1.799,10.89 -7.108,10.89 -1.416,0 -2.825,-0.551 -3.855,-1.446 -1.671,-1.484 -1.972,-3.356 -1.972,-5.189 0,-4.217 2.1,-11.152 7.276,-11.152 1.677,0 3.388,0.805 4.374,2.172 m -5.401,-3.493 c -6.816,0 -10.454,5.331 -10.454,10.14 0,5.631 4.583,10.441 11.099,10.441 C 1.548,17.088 5.49,12.146 5.49,6.949 5.49,1.88 1.594,-3.493 -5.401,-3.493"
             style="fill:#5779c5;fill-opacity:1;fill-rule:nonzero;stroke:none"
             id="path3024" />
        </g>
        <g
           id="g3026"
           transform="translate(308.3193,395.5859)">
          <path
             inkscape:connector-curvature="0"
             d="m 0,0 1.268,1.266 -2.364,0.295 c -0.598,0.073 -1.041,0.571 -1.041,1.186 l 0,25.115 c 0,0.312 0.125,0.602 0.33,0.806 l 1.563,1.561 -7.084,0 -1.832,-1.831 2.749,0 0,-26.033 c 0,-0.312 -0.127,-0.601 -0.331,-0.806 L -8.305,0 0,0 z"
             style="fill:#5779c5;fill-opacity:1;fill-rule:nonzero;stroke:none"
             id="path3028" />
        </g>
        <g
           id="g3030"
           transform="translate(318.722,414.1197)">
          <path
             inkscape:connector-curvature="0"
             d="m 0,0 c 2.338,0 4.285,-1.937 4.285,-3.649 0,-0.6 -0.431,-0.856 -1.253,-1.156 l -7.798,-3.16 C -5.978,-1.526 -1.77,0 0,0 m 4.094,-16.917 c -3.802,0 -7.308,2.746 -8.564,7.622 l 13.149,5.313 c -0.704,2.537 -2.7,5.432 -7.887,5.432 -4.275,0 -9.5,-3.252 -9.5,-9.882 0,-5.224 3.497,-10.699 10.164,-10.699 1.383,0 3.546,0.088 5.754,1.669 0.836,0.584 1.541,1.285 2.129,2.057 -1.471,-0.727 -3.039,-1.512 -5.245,-1.512"
             style="fill:#5779c5;fill-opacity:1;fill-rule:nonzero;stroke:none"
             id="path3032" />
        </g>
        <g
           id="g3034"
           transform="translate(272.584,398.4818)">
          <path
             inkscape:connector-curvature="0"
             d="m 0,0 c 1.035,1.36 1.285,3.053 1.285,4.725 0,3.747 -1.799,10.89 -7.108,10.89 -1.416,0 -2.825,-0.551 -3.855,-1.446 -1.672,-1.484 -1.972,-3.356 -1.972,-5.189 0,-4.217 2.1,-11.152 7.276,-11.152 1.677,0 3.388,0.805 4.374,2.172 m -5.401,-3.493 c -6.816,0 -10.453,5.331 -10.453,10.14 0,5.631 4.582,10.441 11.098,10.441 C 1.548,17.088 5.49,12.146 5.49,6.949 5.49,1.88 1.593,-3.493 -5.401,-3.493"
             style="fill:#5779c5;fill-opacity:1;fill-rule:nonzero;stroke:none"
             id="path3036" />
        </g>
        <g
           id="g3038"
           transform="translate(289.6165,384.3932)">
          <path
             inkscape:connector-curvature="0"
             d="m 0,0 c -4.637,0 -7.634,2.217 -7.634,5.296 0,3.071 2.773,4.116 3.728,4.465 1.82,0.609 4.162,0.69 4.558,0.69 0.428,0 0.644,-0.001 0.987,-0.037 C 4.939,8.055 6.367,6.895 6.367,4.683 6.367,2.216 4.152,0 0,0 m 0.056,17.413 c -3.562,0 -5.499,4.428 -5.499,7.792 0,3.194 1.895,4.613 3.878,4.613 3.814,0 5.786,-4.955 5.786,-7.968 0,-3.718 -2.983,-4.437 -4.165,-4.437 m 5.519,-5.007 -1.562,1.209 c -0.474,0.391 -1.143,0.907 -1.143,1.859 0,0.96 0.618,1.692 1.176,2.125 1.865,1.448 3.649,2.995 3.649,6.194 0,2.912 -1.756,4.61 -2.849,5.569 l 2.423,0 1.815,1.815 -8.901,0 c -6.225,0 -9.39,-3.877 -9.39,-8.173 0,-3.325 2.525,-6.866 7.08,-6.866 l 1.287,0 c -0.164,-0.461 -0.336,-0.982 -0.336,-1.588 0,-1.34 0.631,-2.036 1.291,-2.778 -1.952,-0.128 -5.596,-0.5 -8.282,-2.143 -2.561,-1.525 -3.33,-3.729 -3.33,-5.286 0,-3.21 3.077,-6.244 9.359,-6.244 7.459,0 11.345,4.16 11.345,8.232 0,3.003 -1.728,4.47 -3.632,6.075"
             style="fill:#5779c5;fill-opacity:1;fill-rule:nonzero;stroke:none"
             id="path3040" />
        </g>
        <g
           id="g3042"
           transform="translate(221.598,406.8827)">
          <path
             inkscape:connector-curvature="0"
             d="m 0,0 -1.832,-1.83 5.496,0 0,-7.732 c -1.261,-0.413 -3.289,-0.858 -6.366,-0.858 -8.284,0 -14.291,7.308 -14.291,15.511 0,7.482 4.92,12.727 11.678,12.727 3.922,0 6.659,-1.273 8.979,-3.477 l 0,-2.524 4.184,4.184 c -0.962,0.659 -2.655,1.767 -5.651,2.649 -1.939,0.565 -4.221,0.855 -6.566,0.855 -11.336,0 -17.281,-8.323 -17.281,-15.633 0,-10.511 7.682,-16.201 16.571,-16.201 6.154,0 10.985,1.392 13.018,1.952 l 0,8.01 c 0,0.312 0.126,0.6 0.33,0.804 L 9.832,0 0,0 z"
             style="fill:#5779c5;fill-opacity:1;fill-rule:nonzero;stroke:none"
             id="path3044" />
        </g>
        <g
           id="g3046"
           transform="translate(341.3739,416.6332)">
          <path
             inkscape:connector-curvature="0"
             d="m 0,0 0,2.123 c 0,3.911 1.266,5.616 4.867,5.616 2.199,0 3.836,-0.469 4.856,-0.995 l 0.561,1.614 C 9.289,8.844 7.298,9.442 4.957,9.442 0.182,9.442 -1.918,7.194 -1.918,1.967 l 0,-1.793 -3.911,-0.715 0,-1.123 3.911,0 0,-19.382 1.918,0 0,19.382 8.377,0 0,-19.382 1.918,0 0,19.382 0,1.664 L 8.377,0 0,0 z"
             style="fill:#5779c5;fill-opacity:1;fill-rule:nonzero;stroke:none"
             id="path3048" />
        </g>
        <g
           id="g3050"
           transform="translate(372.3189,399.315)">
          <path
             inkscape:connector-curvature="0"
             d="m 0,0 c -1.16,-1.608 -2.892,-2.411 -5.19,-2.411 -2.362,0 -4.101,0.691 -5.217,2.071 -1.116,1.382 -1.675,3.661 -1.675,6.835 l 0,0.33 c 0,3.265 0.536,5.607 1.607,7.028 1.073,1.42 2.847,2.129 5.325,2.129 4.596,0 6.892,-3.04 6.892,-9.119 C 1.742,3.894 1.162,1.607 0,0 m -5.112,17.725 c -1.588,0 -2.946,-0.296 -4.075,-0.89 -1.128,-0.595 -2.094,-1.523 -2.895,-2.789 l -0.134,0 0.057,1.646 c 0.052,0.956 0.077,2.001 0.077,3.136 l 0,7.677 -1.917,0 0,-30.233 1.2,0 0.543,3.175 0.174,0 c 0.697,-1.135 1.646,-2.012 2.846,-2.633 1.202,-0.62 2.549,-0.928 4.046,-0.928 2.842,0 5.043,0.947 6.613,2.845 1.566,1.897 2.353,4.597 2.353,8.094 0,3.562 -0.745,6.269 -2.237,8.122 -1.492,1.852 -3.709,2.778 -6.651,2.778"
             style="fill:#5779c5;fill-opacity:1;fill-rule:nonzero;stroke:none"
             id="path3052" />
        </g>
        <g
           id="g3054"
           transform="translate(381.2415,407.5531)">
          <path
             inkscape:connector-curvature="0"
             d="m 0,0 c 0.206,2.518 0.924,4.443 2.148,5.779 1.228,1.337 2.854,2.004 4.88,2.004 1.872,0 3.337,-0.688 4.395,-2.062 C 12.482,4.346 13.011,2.44 13.011,0 L 0,0 z M 7.028,9.487 C 4.229,9.487 2,8.477 0.348,6.457 -1.304,4.437 -2.128,1.749 -2.128,-1.606 c 0,-3.396 0.852,-6.037 2.563,-7.922 1.71,-1.884 4.096,-2.825 7.155,-2.825 1.213,0 2.323,0.094 3.328,0.28 1.009,0.187 2.106,0.54 3.293,1.057 l 0,1.741 c -1.395,-0.555 -2.545,-0.914 -3.455,-1.083 -0.911,-0.169 -1.965,-0.253 -3.166,-0.253 -2.466,0 -4.361,0.762 -5.683,2.285 -1.322,1.524 -1.997,3.73 -2.022,6.622 l 15.158,0 0,1.548 c 0,2.969 -0.714,5.318 -2.148,7.048 -1.432,1.731 -3.391,2.595 -5.867,2.595"
             style="fill:#5779c5;fill-opacity:1;fill-rule:nonzero;stroke:none"
             id="path3056" />
        </g>
        <g
           id="g3058"
           transform="translate(409.1878,417.0402)">
          <path
             inkscape:connector-curvature="0"
             d="m 0,0 c -1.392,0 -2.582,-0.314 -3.564,-0.939 -0.98,-0.627 -1.902,-1.714 -2.766,-3.262 l -0.136,0 -0.194,3.794 -1.627,0 0,-21.046 1.919,0 0,11.618 c 0,2.322 0.572,4.246 1.722,5.768 1.15,1.523 2.62,2.285 4.414,2.285 0.944,0 1.852,-0.108 2.73,-0.328 l 0.368,1.838 C 1.846,-0.09 0.89,0 0,0"
             style="fill:#5779c5;fill-opacity:1;fill-rule:nonzero;stroke:none"
             id="path3060" />
        </g>
      </g>
    </g>
  </g>
</svg>
