<?xml version="1.0" encoding="UTF-8" standalone="no"?>
<svg xmlns:rdf="http://www.w3.org/1999/02/22-rdf-syntax-ns#" xmlns="http://www.w3.org/2000/svg" height="25" width="120" version="1.1" xmlns:cc="http://creativecommons.org/ns#" xmlns:dc="http://purl.org/dc/elements/1.1/">
	<metadata>
		<rdf:RDF>
			<cc:Work rdf:about="">
				<dc:format>image/svg+xml</dc:format>
				<dc:type rdf:resource="http://purl.org/dc/dcmitype/StillImage"/>
				<dc:title/>
			</cc:Work>
		</rdf:RDF>
	</metadata>
	<path d="m81.5297 8.83827h1.82074v10.1659h-1.97329v-8.35018h-3.17475v8.35018h-1.99811v-8.35018h-2.15051v-1.81706h2.15051v-2.72762c0-2.1161 1.50728-3.49146 3.91471-3.49146 0.724749 0 1.23896 0.084472 1.72961 0.275071l-0.747757 1.80068c-0.280478-0.126956-0.584328-0.169275-0.981854-0.169275-1.07516 0-1.9166 0.571302-1.9166 1.77755v2.53505h3.3273v0.00135zm31.8463-0.20617c-1.19993 0-2.87086 0.667837-3.34131 1.85499l0.0138-1.67467h-1.85391v10.1471h1.8401v-5.44706c0-1.90783 1.58009-3.06275 3.06259-3.06275 0.41266 0 0.77903 0.04089 1.06922 0.122462 0.0409 0.0115 0.11796 0.03085 0.11796 0.03085l0.71541-1.71658c-0.4471-0.16957-0.70068-0.254355-1.40682-0.254355h-0.21705zm-15.119 9.1679c-0.95778-1.01981-1.43667-2.2343-1.43667-3.79158 0-1.47459 0.4651-2.74244 1.39533-3.8036 0.93022-1.06115 2.11882-1.59172 3.56584-1.59172 1.50214 0 2.70451 0.489226 3.60718 1.46769 0.90266 0.978466 1.35398 2.28766 1.35398 3.92762l-0.0207 0.351419h-7.99988c0.0551 1.01981 0.3962 1.75197 1.02324 2.34456 0.62704 0.592592 1.36087 0.888884 2.20152 0.888884 1.36433 0 2.28764-0.578802 2.76998-1.73642l1.69507 0.702839c-0.33075 0.785528-0.87509 1.44357-1.63305 1.97415-0.75796 0.530576-1.68817 0.79586-2.79066 0.79586-1.5297 0-2.77342-0.509897-3.73121-1.52971zm6.45985-5.01121c-0.0413-0.578809-0.30663-1.13005-0.79585-1.65374-0.48923-0.523686-1.21617-0.785525-2.18085-0.785525-0.70283 0-1.31264 0.220496-1.82943 0.661495s-0.87165 1.03358-1.06458 1.77777h5.87071zm-17.2966-2.8631v-5.45012h-1.93764v14.5216h1.93764v-0.987135c0.89765 0.831839 2.07469 1.33622 3.3634 1.33622 2.81582 0 5.0985-2.408 5.0985-5.37841 0-2.97042-2.28267-5.37841-5.0985-5.37841-1.28871 0-2.46576 0.504382-3.3634 1.33622zm3.32336 7.63397c1.79859 0 3.25663-1.59933 3.25663-3.5722s-1.45804-3.5722-3.25663-3.5722-3.25663 1.59933-3.25663 3.5722 1.45804 3.5722 3.25663 3.5722zm-77.2826-14.9857c-4.59661 0-8.4612 3.71987-8.4612 8.2888 0 4.5691 3.86459 8.28897 8.4612 8.28897 2.48127 0 4.35271-0.808633 5.81707-2.32482 1.50503-1.49613 1.97297-3.59858 1.97297-5.29687 0-0.525611-0.04068-1.01079-0.122188-1.41527h-7.66785v2.26433h5.45098c-0.162706 1.27376-0.58981 2.20368-1.24064 2.85059-0.793353 0.788417-2.03399 1.6577-4.21034 1.6577-3.35598 0-5.97962-2.68886-5.97962-6.02464 0-3.33561 2.62364-6.02448 5.97962-6.02448 1.81027 0 3.13226 0.707554 4.10865 1.61727l1.6067-1.59699c-1.3627-1.29382-3.173-2.28455-5.7154-2.28455zm13.8843 5.94298c-2.92714 0-5.31299 2.2685-5.31299 5.39568 0 3.10642 2.38585 5.39552 5.31299 5.39552s5.31283-2.2891 5.31283-5.39552c0-3.12718-2.38569-5.39568-5.31283-5.39568zm0 8.66559c-1.60398 0-2.98728-1.34884-2.98728-3.26992 0-1.94167 1.3833-3.27023 2.98728-3.27023 1.60383 0 2.98728 1.32856 2.98728 3.27023 0 1.92108-1.38346 3.26992-2.98728 3.26992zm11.5633-8.66562c-2.92725 0-5.31291 2.2685-5.31291 5.39568 0 3.10642 2.38566 5.39552 5.31291 5.39552 2.92694 0 5.31291-2.2891 5.31291-5.39552 0-3.12718-2.38597-5.39568-5.31291-5.39568zm0 8.66559c-1.60396 0-2.98724-1.34884-2.98724-3.26992 0-1.94167 1.38328-3.27023 2.98724-3.27023 1.6038 0 2.98708 1.32856 2.98708 3.27023 0 1.92108-1.38328 3.26992-2.98708 3.26992zm11.4853-8.66562c-2.64965 0-5.07851 2.34779-5.07851 5.36344 0 2.99541 2.42886 5.32281 5.07851 5.32281 1.26453 0 2.26829-0.56667 2.79016-1.21429h0.08029v0.769052c0 2.04422-1.08388 3.13708-2.8303 3.13708-1.42511 0-2.30843-1.03231-2.66972-1.90239l-2.02727 0.849846c0.582 1.4169 2.1276 3.1575 4.697 3.1575 2.72994 0 5.03837-1.61922 5.03837-5.56582v-9.59339h-2.20807v0.870244h-0.08029c-0.5219-0.6274-1.5257-1.19407-2.7902-1.19407zm0.200876 8.58132c-1.60591 0-2.95089-1.35596-2.95089-3.21788 0-1.88231 1.34498-3.25867 2.95089-3.25867 1.58568 0 2.83014 1.37636 2.83014 3.25867 0 1.86192-1.24446 3.21788-2.83014 3.21788zm6.59652-13.8987h2.34393v15.7958h-2.34393v-15.7958zm8.57915 5.3174c-2.79285 0-5.11324 2.18692-5.11324 5.39568 0 3.02467 2.29986 5.39552 5.38019 5.39552 2.48467 0 3.92224-1.51234 4.51774-2.39128l-1.8481-1.22622c-0.616034 0.899227-1.45811 1.4919-2.66964 1.4919-1.21169 0-2.07414-0.551798-2.62857-1.63496l7.24915-2.98396-0.246574-0.613108c-0.4518-1.2057-1.8276-3.43352-4.6409-3.43352zm-2.75162 5.23218c-0.06176-2.08473 1.62222-3.14745 2.8336-3.14745 0.944746 0 1.74559 0.47005 2.01254 1.14447l-4.84614 2.00298z" fill-rule="evenodd" type="MSShapeGroup" fill="#757575"/>
</svg>
