<?xml version="1.0" encoding="utf-8"?>
<!-- Generator: Adobe Illustrator 18.0.0, SVG Export Plug-In . SVG Version: 6.00 Build 0)  -->
<!DOCTYPE svg PUBLIC "-//W3C//DTD SVG 1.1//EN" "http://www.w3.org/Graphics/SVG/1.1/DTD/svg11.dtd">
<svg version="1.1" id="Layer_1" xmlns="http://www.w3.org/2000/svg" xmlns:xlink="http://www.w3.org/1999/xlink" x="0px" y="0px"
	 viewBox="0 0 697 159" enable-background="new 0 0 697 159" xml:space="preserve">
<g>
	<g>
		<path fill="#0091EA" d="M151.8,109.3c-21.5,0-33-16.8-33-32c0-17.8,14.4-32.9,35-32.9c19.9,0,32.3,15.6,32.3,32
			C186.1,92.4,173.8,109.3,151.8,109.3z M168.8,98.3c3.3-4.3,4-9.6,4-14.9c0-11.8-5.7-34.3-22.4-34.3c-4.5,0-8.9,1.7-12.1,4.6
			C133,58.3,132,64.2,132,70c0,13.3,6.6,35.2,23,35.2C160.3,105.1,165.7,102.6,168.8,98.3z"/>
		<path fill="#0091EA" d="M355.6,107.4l4-4l-7.5-0.9c-1.9-0.2-3.3-1.8-3.3-3.7V19.6c0-1,0.4-1.9,1-2.6l4.9-4.9h-22.3l-5.8,5.8h8.7
			V100c0,1-0.4,1.9-1,2.5l-4.9,4.9H355.6z"/>
		<path fill="#0091EA" d="M401.3,102.3c-12,0-23-8.7-27-24l41.5-16.7c-2.2-8-8.5-17.1-24.9-17.1c-13.5,0-30,10.3-30,31.2
			c0,16.5,11,33.7,32,33.7c4.4,0,11.2-0.3,18.1-5.3c2.6-1.8,4.9-4,6.7-6.5C413.2,99.8,408.2,102.3,401.3,102.3z M388.4,49
			c7.4,0,13.5,6.1,13.5,11.5c0,1.9-1.4,2.7-4,3.7l-24.6,10C369.5,53.8,382.8,49,388.4,49z"/>
		<path fill="#0091EA" d="M225.9,109.3c-21.5,0-33-16.8-33-32c0-17.8,14.4-32.9,35-32.9c19.9,0,32.3,15.6,32.3,32
			C260.2,92.4,247.9,109.3,225.9,109.3z M242.9,98.3c3.3-4.3,4-9.6,4-14.9c0-11.8-5.7-34.3-22.4-34.3c-4.5,0-8.9,1.7-12.1,4.6
			c-5.3,4.7-6.2,10.6-6.2,16.4c0,13.3,6.6,35.2,22.9,35.2C234.4,105.1,239.8,102.6,242.9,98.3z"/>
		<path fill="#0091EA" d="M314.2,103.6l-4.9-3.8c-1.5-1.2-3.6-2.9-3.6-5.9c0-3,2-5.3,3.7-6.7c5.9-4.6,11.5-9.4,11.5-19.5
			c0-9.2-5.5-14.5-9-17.6h7.6l5.7-5.7h-28.1c-19.6,0-29.6,12.2-29.6,25.8c0,10.5,8,21.6,22.3,21.6c1.2,0,4.1,0,4.1,0
			c-0.5,1.4-1.1,3.1-1.1,5c0,4.2,2,6.4,4.1,8.8c-6.1,0.4-17.6,1.6-26.1,6.8c-8.1,4.8-10.5,11.8-10.5,16.7c0,10.1,9.7,19.7,29.5,19.7
			c23.5,0,35.8-13.1,35.8-26C325.6,113.3,320.2,108.7,314.2,103.6z M296.8,87.8c-11.2,0-17.3-14-17.3-24.6c0-10.1,6-14.5,12.2-14.5
			c12,0,18.2,15.6,18.2,25.1C309.9,85.5,300.5,87.8,296.8,87.8z M296.6,142.7c-14.6,0-24.1-7-24.1-16.7c0-9.7,8.7-13,11.8-14.1
			c5.7-1.9,13.1-2.2,14.4-2.2c1.4,0,2,0,3.1,0.1c10.4,7.4,14.9,11.1,14.9,18.1C316.7,135.7,309.7,142.7,296.6,142.7z"/>
		<path fill="#0091EA" d="M82.2,71.8l-5.8,5.8h17.3v24.4c-4,1.3-10.4,2.7-20.1,2.7c-26.1,0-45.1-23-45.1-48.9
			c0-23.6,15.5-40.1,36.8-40.1c12.4,0,21,4,28.3,11v8l13.2-13.2c-3-2.1-8.4-5.6-17.8-8.4c-6.1-1.8-13.3-2.7-20.7-2.7
			c-35.7,0-54.5,26.3-54.5,49.3c0,33.1,24.2,51.1,52.2,51.1c19.4,0,34.6-4.4,41.1-6.2V79.2c0-1,0.4-1.9,1-2.5l4.9-4.9H82.2z"/>
		<g>
			<path fill="#0091EA" d="M459.8,41.1v-6.7c0-12.3,4-17.7,15.3-17.7c6.9,0,12.1,1.5,15.3,3.1l1.8-5.1c-3.1-1.5-9.4-3.4-16.8-3.4
				c-15.1,0-21.7,7.1-21.7,23.6v5.6l-12.3,2.3v3.5h12.3v61.1h6.1V46.3h26.4v61.1h6V46.3v-5.2h-6H459.8z"/>
			<path fill="#0091EA" d="M541.2,39.8c-5,0-9.3,0.9-12.9,2.8c-3.6,1.9-6.6,4.8-9.1,8.8h-0.4l0.2-5.2c0.1-3,0.2-6.3,0.2-9.9V12.1h-6
				v95.3h3.8l1.7-10h0.5c2.2,3.6,5.2,6.4,9,8.3c3.8,1.9,8,2.9,12.8,2.9c8.9,0,15.9-3,20.8-9c4.9-6,7.4-14.5,7.4-25.5
				c0-11.3-2.3-19.8-7.1-25.6C557.5,42.7,550.5,39.8,541.2,39.8z M557.3,95.7c-3.7,5.1-9.1,7.6-16.4,7.6c-7.4,0-12.9-2.2-16.5-6.6
				c-3.5-4.3-5.3-11.5-5.3-21.5v-1c0-10.3,1.7-17.7,5.1-22.2c3.4-4.5,9-6.7,16.8-6.7c14.5,0,21.7,9.6,21.7,28.7
				C562.8,83.4,561,90.6,557.3,95.7z"/>
			<path fill="#0091EA" d="M607.6,39.8c-8.8,0-15.8,3.2-21.1,9.5c-5.2,6.4-7.8,14.8-7.8,25.4c0,10.7,2.7,19,8.1,25
				c5.4,5.9,12.9,8.9,22.6,8.9c3.8,0,7.3-0.3,10.5-0.9c3.2-0.6,6.6-1.7,10.4-3.3v-5.5c-4.4,1.7-8,2.9-10.9,3.4
				c-2.9,0.5-6.2,0.8-10,0.8c-7.8,0-13.7-2.4-17.9-7.2c-4.2-4.8-6.3-11.8-6.4-20.9h47.8v-4.9c0-9.4-2.3-16.8-6.8-22.2
				C621.6,42.5,615.4,39.8,607.6,39.8z M585.5,69.7c0.7-7.9,2.9-14,6.8-18.2c3.9-4.2,9-6.3,15.4-6.3c5.9,0,10.5,2.2,13.9,6.5
				c3.3,4.3,5,10.4,5,18H585.5z"/>
			<path fill="#0091EA" d="M673.6,39.8c-4.4,0-8.1,1-11.2,3c-3.1,2-6,5.4-8.7,10.3h-0.4l-0.6-12h-5.1v66.3h6.1V70.8
				c0-7.3,1.8-13.4,5.4-18.2c3.6-4.8,8.3-7.2,13.9-7.2c3,0,5.8,0.4,8.6,1l1.2-5.8C679.4,40.1,676.4,39.8,673.6,39.8z"/>
		</g>
	</g>
</g>
</svg>
